# xmcd
# 
# Track frame offsets:
#     150
#     6295
#     12287
#     108502
#     187825
#     266942
# 
# Disc length: 3758
# 
# Revision: 1
# Processed by: cddbd v1.5.2PL0 Copyright (c) Steve Scherf et al.
# Submitted via: fre:ac v1.0.31
# 
DISCID=470eac06
DTITLE=富野由悠季 - サウンドシアター ガイア・ギア CD-4 [CD1]
DYEAR=1993
DGENRE=Anime
TTITLE0=オープニング・ナレーション
TTITLE1=市川陽子 - オープニング「Voice Of Gaia」(ON AIR SIZE)
TTITLE2=第19話「クリシュナの苦悩」
TTITLE3=第20話「ヌーボ・パリ」
TTITLE4=第21話「戦いの果て」
TTITLE5=市川陽子 - エンディング「Stay With You ～星のように～」(ON AIR SIZE)
EXTD=文化放送開局４０周年スペシャル
EXTT0=
EXTT1=
EXTT2=
EXTT3=
EXTT4=
EXTT5=
PLAYORDER=
